# xmcd
#
# Track frame offsets: 
#        150
#        21392
#        36646
#        52884
#        85036
#        109175
#        129110
#
# Disc length: 2244 seconds
#
# Revision: 1
# Processed by: cddbd v1.5.2PL0 Copyright (c) Steve Scherf et al.
# Submitted via: ExactAudioCopyFreeDBPlugin 1.0
#
DISCID=5308c207
DTITLE=Blues Gang - Dig it!
DYEAR=1984
DGENRE=Blues
TTITLE0=Dangerous Blues
TTITLE1=Happy Just To Know Low Down Blues
TTITLE2=Good Old Time Rockin' R and B
TTITLE3=It's My Own Tears
TTITLE4=Don Throw Your Love On Me So Strong
TTITLE5=Image My Mind Up
TTITLE6=Far Too Many Nights
EXTD=
EXTT0=
EXTT1=
EXTT2=
EXTT3=
EXTT4=
EXTT5=
EXTT6=
PLAYORDER=
